<?xml version="1.0" encoding="utf-8"?>
<!-- Svg Vector Icons : http://www.onlinewebfonts.com/icon -->
<!DOCTYPE svg PUBLIC "-//W3C//DTD SVG 1.1//EN" "http://www.w3.org/Graphics/SVG/1.1/DTD/svg11.dtd">
<svg version="1.1" xmlns="http://www.w3.org/2000/svg" xmlns:xlink="http://www.w3.org/1999/xlink" x="0px" y="0px" viewBox="0 0 1000 1000" enable-background="new 0 0 1000 1000" xml:space="preserve">
<metadata> Svg Vector Icons : http://www.onlinewebfonts.com/icon </metadata>
<g><path d="M990,968.3c-34.2-181.3-165.5-327.9-338.5-382.9c95.9-53.2,160.8-155.5,160.8-273c0-172.3-139.7-312-312-312c-172.3,0-312,139.7-312,312c0,117.4,64.9,219.7,160.8,273C179.2,639.4,48.8,781.6,11.7,958.2c-0.9,2.5-1.4,5.2-1.6,8c-0.1,0.7,0.1,1.4-0.1,2.1l0,0c0,17.2,14,31.2,31.2,31.2c17.2,0,31.2-14,31.2-31.2l0,0c42.6-196.6,218.5-343.8,427.8-343.8c209.3,0,384.7,147.2,427.4,343.8l0,0c0.3,17,14.1,30.6,31.2,30.6S989.7,985.3,990,968.3L990,968.3z M250.6,312.5c0-137.9,111.8-249.6,249.6-249.6c137.9,0,249.6,111.8,249.6,249.6c0,137.9-111.8,249.6-249.6,249.6S250.6,450.4,250.6,312.5z"/></g>
</svg>